<mxfile host="Electron" modified="2024-06-05T14:01:08.781Z" agent="Mozilla/5.0 (Windows NT 10.0; Win64; x64) AppleWebKit/537.36 (KHTML, like Gecko) draw.io/24.4.6 Chrome/124.0.6367.207 Electron/30.0.6 Safari/537.36" etag="hLtB1wtNUJwlhDSmBSIC" version="24.4.6" type="device">
  <diagram id="C5RBs43oDa-KdzZeNtuy" name="Page-1">
    <mxGraphModel dx="880" dy="574" grid="1" gridSize="10" guides="1" tooltips="1" connect="1" arrows="1" fold="1" page="1" pageScale="1" pageWidth="827" pageHeight="1169" background="#FFF2CC" math="0" shadow="0">
      <root>
        <mxCell id="WIyWlLk6GJQsqaUBKTNV-0" />
        <mxCell id="WIyWlLk6GJQsqaUBKTNV-1" parent="WIyWlLk6GJQsqaUBKTNV-0" />
        <mxCell id="cC8tqE4fCrb4yRUmnYWD-0" value="&amp;lt;&amp;lt;Interface&amp;gt;&amp;gt;&lt;div&gt;DatabaseAccess&lt;/div&gt;" style="swimlane;fontStyle=1;align=center;verticalAlign=top;childLayout=stackLayout;horizontal=1;startSize=40;horizontalStack=0;resizeParent=1;resizeParentMax=0;resizeLast=0;collapsible=1;marginBottom=0;whiteSpace=wrap;html=1;swimlaneFillColor=default;fillColor=#9AC7BF;rounded=1;shadow=1;glass=0;" parent="WIyWlLk6GJQsqaUBKTNV-1" vertex="1">
          <mxGeometry x="274" y="190" width="280" height="92" as="geometry" />
        </mxCell>
        <mxCell id="cC8tqE4fCrb4yRUmnYWD-3" value="+ insertNewRow(rowData: String[*]):Integer" style="text;strokeColor=none;fillColor=none;align=left;verticalAlign=top;spacingLeft=4;spacingRight=4;overflow=hidden;rotatable=0;points=[[0,0.5],[1,0.5]];portConstraint=eastwest;whiteSpace=wrap;html=1;" parent="cC8tqE4fCrb4yRUmnYWD-0" vertex="1">
          <mxGeometry y="40" width="280" height="26" as="geometry" />
        </mxCell>
        <mxCell id="cC8tqE4fCrb4yRUmnYWD-8" value="+ getSearchResults(queryString: String): String[*]" style="text;strokeColor=none;fillColor=none;align=left;verticalAlign=top;spacingLeft=4;spacingRight=4;overflow=hidden;rotatable=0;points=[[0,0.5],[1,0.5]];portConstraint=eastwest;whiteSpace=wrap;html=1;" parent="cC8tqE4fCrb4yRUmnYWD-0" vertex="1">
          <mxGeometry y="66" width="280" height="26" as="geometry" />
        </mxCell>
        <mxCell id="cC8tqE4fCrb4yRUmnYWD-18" style="edgeStyle=none;curved=1;rounded=0;orthogonalLoop=1;jettySize=auto;html=1;fontSize=12;startSize=8;endSize=8;dashed=1;endArrow=block;endFill=0;strokeColor=#000000;" parent="WIyWlLk6GJQsqaUBKTNV-1" source="cC8tqE4fCrb4yRUmnYWD-4" target="cC8tqE4fCrb4yRUmnYWD-0" edge="1">
          <mxGeometry relative="1" as="geometry">
            <Array as="points">
              <mxPoint x="260" y="360" />
            </Array>
          </mxGeometry>
        </mxCell>
        <mxCell id="cC8tqE4fCrb4yRUmnYWD-4" value="DatabaseRealAccess" style="swimlane;fontStyle=1;align=center;verticalAlign=top;childLayout=stackLayout;horizontal=1;startSize=26;horizontalStack=0;resizeParent=1;resizeParentMax=0;resizeLast=0;collapsible=1;marginBottom=0;whiteSpace=wrap;html=1;rounded=1;shadow=1;glass=0;strokeColor=default;swimlaneFillColor=default;fontFamily=Helvetica;fontSize=12;fontColor=default;fillColor=#9AC7BF;" parent="WIyWlLk6GJQsqaUBKTNV-1" vertex="1">
          <mxGeometry x="40" y="400" width="275" height="112" as="geometry" />
        </mxCell>
        <mxCell id="cC8tqE4fCrb4yRUmnYWD-5" value="&lt;span style=&quot;font-weight: normal;&quot;&gt;- database&lt;/span&gt;" style="text;strokeColor=none;fillColor=none;align=left;verticalAlign=top;spacingLeft=4;spacingRight=4;overflow=hidden;rotatable=0;points=[[0,0.5],[1,0.5]];portConstraint=eastwest;whiteSpace=wrap;html=1;fontFamily=Helvetica;fontSize=12;fontColor=default;fontStyle=1;" parent="cC8tqE4fCrb4yRUmnYWD-4" vertex="1">
          <mxGeometry y="26" width="275" height="26" as="geometry" />
        </mxCell>
        <mxCell id="cC8tqE4fCrb4yRUmnYWD-6" value="" style="line;strokeWidth=1;fillColor=#9AC7BF;align=center;verticalAlign=top;spacingTop=-1;spacingLeft=3;spacingRight=3;rotatable=0;labelPosition=right;points=[];portConstraint=eastwest;strokeColor=default;rounded=1;shadow=1;glass=0;swimlaneFillColor=default;fontFamily=Helvetica;fontSize=12;fontColor=default;fontStyle=1;" parent="cC8tqE4fCrb4yRUmnYWD-4" vertex="1">
          <mxGeometry y="52" width="275" height="8" as="geometry" />
        </mxCell>
        <mxCell id="cC8tqE4fCrb4yRUmnYWD-9" value="+ insertNewRow(rowData: String[*]):Integer" style="text;strokeColor=none;fillColor=none;align=left;verticalAlign=top;spacingLeft=4;spacingRight=4;overflow=hidden;rotatable=0;points=[[0,0.5],[1,0.5]];portConstraint=eastwest;whiteSpace=wrap;html=1;" parent="cC8tqE4fCrb4yRUmnYWD-4" vertex="1">
          <mxGeometry y="60" width="275" height="26" as="geometry" />
        </mxCell>
        <mxCell id="cC8tqE4fCrb4yRUmnYWD-10" value="+ getSearchResults(queryString: String): String[*]" style="text;strokeColor=none;fillColor=none;align=left;verticalAlign=top;spacingLeft=4;spacingRight=4;overflow=hidden;rotatable=0;points=[[0,0.5],[1,0.5]];portConstraint=eastwest;whiteSpace=wrap;html=1;" parent="cC8tqE4fCrb4yRUmnYWD-4" vertex="1">
          <mxGeometry y="86" width="275" height="26" as="geometry" />
        </mxCell>
        <mxCell id="cC8tqE4fCrb4yRUmnYWD-16" style="edgeStyle=none;curved=1;rounded=0;orthogonalLoop=1;jettySize=auto;html=1;fontSize=12;startSize=8;endSize=8;strokeColor=#000000;" parent="WIyWlLk6GJQsqaUBKTNV-1" source="cC8tqE4fCrb4yRUmnYWD-11" target="cC8tqE4fCrb4yRUmnYWD-4" edge="1">
          <mxGeometry relative="1" as="geometry" />
        </mxCell>
        <mxCell id="cC8tqE4fCrb4yRUmnYWD-17" value="- realAccess 1" style="edgeLabel;html=1;align=center;verticalAlign=middle;resizable=0;points=[];fontSize=14;labelBackgroundColor=none;fontColor=#000000;" parent="cC8tqE4fCrb4yRUmnYWD-16" vertex="1" connectable="0">
          <mxGeometry x="0.6571" y="1" relative="1" as="geometry">
            <mxPoint x="45" y="-18" as="offset" />
          </mxGeometry>
        </mxCell>
        <mxCell id="cC8tqE4fCrb4yRUmnYWD-19" style="edgeStyle=none;curved=1;rounded=0;orthogonalLoop=1;jettySize=auto;html=1;fontSize=12;startSize=8;endSize=8;dashed=1;strokeColor=#000000;align=center;verticalAlign=middle;fontFamily=Helvetica;fontColor=default;labelBackgroundColor=default;endArrow=block;endFill=0;" parent="WIyWlLk6GJQsqaUBKTNV-1" source="cC8tqE4fCrb4yRUmnYWD-11" target="cC8tqE4fCrb4yRUmnYWD-0" edge="1">
          <mxGeometry relative="1" as="geometry" />
        </mxCell>
        <mxCell id="cC8tqE4fCrb4yRUmnYWD-11" value="DatabaseProxy" style="swimlane;fontStyle=1;align=center;verticalAlign=top;childLayout=stackLayout;horizontal=1;startSize=26;horizontalStack=0;resizeParent=1;resizeParentMax=0;resizeLast=0;collapsible=1;marginBottom=0;whiteSpace=wrap;html=1;rounded=1;shadow=1;glass=0;strokeColor=default;swimlaneFillColor=default;fontFamily=Helvetica;fontSize=12;fontColor=default;fillColor=#9AC7BF;" parent="WIyWlLk6GJQsqaUBKTNV-1" vertex="1">
          <mxGeometry x="490" y="331" width="360" height="250" as="geometry" />
        </mxCell>
        <mxCell id="cC8tqE4fCrb4yRUmnYWD-12" value="- &lt;span style=&quot;font-weight: normal;&quot;&gt;isLogged:&lt;/span&gt;&amp;nbsp;&lt;span style=&quot;font-weight: normal;&quot;&gt;Boolean&lt;/span&gt;" style="text;strokeColor=none;fillColor=none;align=left;verticalAlign=top;spacingLeft=4;spacingRight=4;overflow=hidden;rotatable=0;points=[[0,0.5],[1,0.5]];portConstraint=eastwest;whiteSpace=wrap;html=1;fontFamily=Helvetica;fontSize=12;fontColor=default;fontStyle=1;" parent="cC8tqE4fCrb4yRUmnYWD-11" vertex="1">
          <mxGeometry y="26" width="360" height="26" as="geometry" />
        </mxCell>
        <mxCell id="cC8tqE4fCrb4yRUmnYWD-21" value="- &lt;span style=&quot;font-weight: normal;&quot;&gt;password:&lt;/span&gt;&amp;nbsp;&lt;span style=&quot;font-weight: normal;&quot;&gt;String&lt;/span&gt;" style="text;strokeColor=none;fillColor=none;align=left;verticalAlign=top;spacingLeft=4;spacingRight=4;overflow=hidden;rotatable=0;points=[[0,0.5],[1,0.5]];portConstraint=eastwest;whiteSpace=wrap;html=1;fontFamily=Helvetica;fontSize=12;fontColor=default;fontStyle=1;" parent="cC8tqE4fCrb4yRUmnYWD-11" vertex="1">
          <mxGeometry y="52" width="360" height="26" as="geometry" />
        </mxCell>
        <mxCell id="cC8tqE4fCrb4yRUmnYWD-13" value="" style="line;strokeWidth=1;fillColor=#9AC7BF;align=center;verticalAlign=top;spacingTop=-1;spacingLeft=3;spacingRight=3;rotatable=0;labelPosition=right;points=[];portConstraint=eastwest;strokeColor=default;rounded=1;shadow=1;glass=0;swimlaneFillColor=default;fontFamily=Helvetica;fontSize=12;fontColor=default;fontStyle=1;" parent="cC8tqE4fCrb4yRUmnYWD-11" vertex="1">
          <mxGeometry y="78" width="360" height="8" as="geometry" />
        </mxCell>
        <mxCell id="cC8tqE4fCrb4yRUmnYWD-23" value="+ &amp;lt;&amp;lt;create&amp;gt;&amp;gt; DatabaseProxy(realAccess: DatabaseRealAccess, password: String)" style="text;strokeColor=none;fillColor=none;align=left;verticalAlign=top;spacingLeft=4;spacingRight=4;overflow=hidden;rotatable=0;points=[[0,0.5],[1,0.5]];portConstraint=eastwest;whiteSpace=wrap;html=1;fontFamily=Helvetica;fontSize=12;fontColor=default;fontStyle=0;" parent="cC8tqE4fCrb4yRUmnYWD-11" vertex="1">
          <mxGeometry y="86" width="360" height="34" as="geometry" />
        </mxCell>
        <mxCell id="9yoBWGdTA8XgW0Cx-c1i-1" value="+ &amp;lt;&amp;lt;static&amp;gt;&amp;gt; main(args: String[])" style="text;strokeColor=none;fillColor=none;align=left;verticalAlign=top;spacingLeft=4;spacingRight=4;overflow=hidden;rotatable=0;points=[[0,0.5],[1,0.5]];portConstraint=eastwest;whiteSpace=wrap;html=1;" vertex="1" parent="cC8tqE4fCrb4yRUmnYWD-11">
          <mxGeometry y="120" width="360" height="26" as="geometry" />
        </mxCell>
        <mxCell id="cC8tqE4fCrb4yRUmnYWD-14" value="+ insertNewRow(rowData: String[*]):Integer" style="text;strokeColor=none;fillColor=none;align=left;verticalAlign=top;spacingLeft=4;spacingRight=4;overflow=hidden;rotatable=0;points=[[0,0.5],[1,0.5]];portConstraint=eastwest;whiteSpace=wrap;html=1;" parent="cC8tqE4fCrb4yRUmnYWD-11" vertex="1">
          <mxGeometry y="146" width="360" height="26" as="geometry" />
        </mxCell>
        <mxCell id="cC8tqE4fCrb4yRUmnYWD-15" value="+ getSearchResults(queryString: String): String[*]" style="text;strokeColor=none;fillColor=none;align=left;verticalAlign=top;spacingLeft=4;spacingRight=4;overflow=hidden;rotatable=0;points=[[0,0.5],[1,0.5]];portConstraint=eastwest;whiteSpace=wrap;html=1;" parent="cC8tqE4fCrb4yRUmnYWD-11" vertex="1">
          <mxGeometry y="172" width="360" height="26" as="geometry" />
        </mxCell>
        <mxCell id="cC8tqE4fCrb4yRUmnYWD-20" value="+ login(password: String)" style="text;strokeColor=none;fillColor=none;align=left;verticalAlign=top;spacingLeft=4;spacingRight=4;overflow=hidden;rotatable=0;points=[[0,0.5],[1,0.5]];portConstraint=eastwest;whiteSpace=wrap;html=1;" parent="cC8tqE4fCrb4yRUmnYWD-11" vertex="1">
          <mxGeometry y="198" width="360" height="26" as="geometry" />
        </mxCell>
        <mxCell id="cC8tqE4fCrb4yRUmnYWD-22" value="+ logOut()" style="text;strokeColor=none;fillColor=none;align=left;verticalAlign=top;spacingLeft=4;spacingRight=4;overflow=hidden;rotatable=0;points=[[0,0.5],[1,0.5]];portConstraint=eastwest;whiteSpace=wrap;html=1;" parent="cC8tqE4fCrb4yRUmnYWD-11" vertex="1">
          <mxGeometry y="224" width="360" height="26" as="geometry" />
        </mxCell>
        <mxCell id="cC8tqE4fCrb4yRUmnYWD-24" value="&lt;font color=&quot;#000000&quot;&gt;&lt;b&gt;&lt;i&gt;SUBJECT&lt;/i&gt;&lt;/b&gt;&lt;/font&gt;" style="text;html=1;align=center;verticalAlign=middle;resizable=0;points=[];autosize=1;strokeColor=none;fillColor=none;fontSize=16;" parent="WIyWlLk6GJQsqaUBKTNV-1" vertex="1">
          <mxGeometry x="364" y="160" width="100" height="30" as="geometry" />
        </mxCell>
        <mxCell id="cC8tqE4fCrb4yRUmnYWD-25" value="&lt;font color=&quot;#000000&quot;&gt;&lt;b&gt;&lt;i&gt;REAL SUBJECT&lt;/i&gt;&lt;/b&gt;&lt;/font&gt;" style="text;html=1;align=center;verticalAlign=middle;resizable=0;points=[];autosize=1;strokeColor=none;fillColor=none;fontSize=16;" parent="WIyWlLk6GJQsqaUBKTNV-1" vertex="1">
          <mxGeometry x="40" y="370" width="150" height="30" as="geometry" />
        </mxCell>
        <mxCell id="cC8tqE4fCrb4yRUmnYWD-26" value="&lt;font color=&quot;#000000&quot;&gt;&lt;b&gt;&lt;i&gt;PROXY&lt;/i&gt;&lt;/b&gt;&lt;/font&gt;" style="text;html=1;align=center;verticalAlign=middle;resizable=0;points=[];autosize=1;strokeColor=none;fillColor=none;fontSize=16;" parent="WIyWlLk6GJQsqaUBKTNV-1" vertex="1">
          <mxGeometry x="630" y="301" width="80" height="30" as="geometry" />
        </mxCell>
      </root>
    </mxGraphModel>
  </diagram>
</mxfile>
